<?xml version="1.0" encoding="UTF-8"?>
<!--
  BBSaM-Messenger Logo (Vollständig)
  Fächer-Motiv mit Schriftzug "BBSaM-Messenger" und farbigen Kacheln
-->
<svg xmlns="http://www.w3.org/2000/svg" viewBox="0 0 600 200" width="600" height="200">
  <defs>
    <linearGradient id="fanBlue" x1="0%" y1="0%" x2="100%" y2="100%">
      <stop offset="0%" style="stop-color:#1A73E8;stop-opacity:1" />
      <stop offset="100%" style="stop-color:#1557B0;stop-opacity:1" />
    </linearGradient>
  </defs>

  <!-- Fächer-Motiv (links) -->
  <g transform="translate(70, 110)">
    <!-- Fächerblatt 1 -->
    <path d="M0,0 L-12,-70 C-8,-76 -2,-78 4,-70 L8,-30 Z" fill="#1A73E8" opacity="0.95"/>
    <!-- Fächerblatt 2 -->
    <path d="M0,0 L14,-72 C19,-74 24,-70 26,-62 L18,-24 Z" fill="#1A73E8" opacity="0.85"/>
    <!-- Fächerblatt 3 -->
    <path d="M0,0 L36,-58 C42,-54 44,-48 42,-40 L26,-14 Z" fill="#1A73E8" opacity="0.75"/>
    <!-- Fächerblatt 4 -->
    <path d="M0,0 L52,-34 C56,-28 57,-20 54,-14 L32,-2 Z" fill="#1A73E8" opacity="0.65"/>
    <!-- Fächerblatt 5 -->
    <path d="M0,0 L60,-6 C62,2 60,10 55,14 L34,10 Z" fill="#1A73E8" opacity="0.55"/>
    <!-- Zentraler Punkt -->
    <circle cx="0" cy="0" r="7" fill="#4791DB"/>
    <circle cx="0" cy="0" r="4" fill="#1A73E8"/>
  </g>

  <!-- Schriftzug -->
  <text x="145" y="105" font-family="'Segoe UI', 'Helvetica Neue', Arial, sans-serif" font-size="48" font-weight="700" fill="#202124">
    BBSaM
  </text>
  <text x="145" y="140" font-family="'Segoe UI', 'Helvetica Neue', Arial, sans-serif" font-size="24" font-weight="400" fill="#5F6368" letter-spacing="1">
    Messenger
  </text>

  <!-- Farbige Kacheln -->
  <g transform="translate(145, 158)">
    <rect x="0" y="0" width="22" height="22" rx="3" fill="#1B2A4A"/>
    <line x1="17" y1="5" x2="5" y2="17" stroke="#FFFFFF" stroke-width="1.5" opacity="0.5"/>
    <rect x="28" y="0" width="22" height="22" rx="3" fill="#1E8E3E"/>
    <line x1="45" y1="5" x2="33" y2="17" stroke="#FFFFFF" stroke-width="1.5" opacity="0.5"/>
    <rect x="56" y="0" width="22" height="22" rx="3" fill="#7B1FA2"/>
    <line x1="73" y1="5" x2="61" y2="17" stroke="#FFFFFF" stroke-width="1.5" opacity="0.5"/>
    <rect x="84" y="0" width="22" height="22" rx="3" fill="#A8C023"/>
    <line x1="101" y1="5" x2="89" y2="17" stroke="#FFFFFF" stroke-width="1.5" opacity="0.5"/>
    <rect x="112" y="0" width="22" height="22" rx="3" fill="#E65100"/>
    <line x1="129" y1="5" x2="117" y2="17" stroke="#FFFFFF" stroke-width="1.5" opacity="0.5"/>
  </g>
</svg>
